# xmcd
#
# Track frame offsets:
#	150
#	16618
#	28968
#	51182
#	69119
#	85363
#	107427
#	126584
#	144374
#	159928
#
# Disc length: 2412 seconds
#
# Revision: 1
# Processed by: cddbd v1.5.2PL0 Copyright (c) Steve Scherf et al.
# Submitted via: audiograbber 1.83.01
#
DISCID=79096a0a
DTITLE=Brother Dave - Boiled peanuts
DYEAR=2004
DGENRE=Blues
TTITLE0=Caroline
TTITLE1=Test tube baby
TTITLE2=Congratulations
TTITLE3=Shiny red dress
TTITLE4=Blind drunk and crazy
TTITLE5=Final notice
TTITLE6=No one's got it made
TTITLE7=Substitute
TTITLE8=Devil in the bottle
TTITLE9=I shall be released
EXTD=
EXTT0=
EXTT1=
EXTT2=
EXTT3=
EXTT4=
EXTT5=
EXTT6=
EXTT7=
EXTT8=
EXTT9=
PLAYORDER=
